<?xml version="1.0" ?><svg enable-background="new 0 0 32 32" id="Layer_1" version="1.1" viewBox="0 0 32 32" xml:space="preserve" xmlns="http://www.w3.org/2000/svg" xmlns:xlink="http://www.w3.org/1999/xlink"><g><path d="M30,2v28H2V2H30 M31,1H1v30h30V1L31,1z" fill="#414753"/><path d="M30,2v28H2V2H30 M31,1H1v30h30V1L31,1z" fill="#414753"/></g><g><g><path d="M21.35,19.27c-0.151,0-0.261,0.042-0.327,0.132c-0.066,0.085-0.098,0.231-0.098,0.433v0.488h0.841v-0.488    c0-0.203-0.034-0.349-0.101-0.433C21.602,19.312,21.495,19.27,21.35,19.27z" fill="#414753"/><path d="M18.074,19.254c-0.068,0-0.136,0.014-0.202,0.047c-0.066,0.031-0.131,0.081-0.195,0.148v3.011    c0.077,0.077,0.152,0.137,0.226,0.17c0.073,0.035,0.149,0.052,0.229,0.052c0.116,0,0.202-0.034,0.256-0.103    c0.054-0.067,0.084-0.177,0.084-0.332v-2.496c0-0.163-0.034-0.288-0.101-0.371C18.301,19.295,18.201,19.254,18.074,19.254z" fill="#414753"/><path d="M23.355,15.507c-0.781-0.78-7.358-0.791-7.358-0.789c0-0.001-6.577,0.01-7.36,0.788    c-0.783,0.782-0.784,4.636-0.784,4.658c0,0.029,0.002,3.877,0.784,4.659c0.783,0.779,7.36,0.796,7.36,0.796    s6.578-0.017,7.358-0.796c0.785-0.783,0.793-4.659,0.793-4.659C24.147,20.143,24.138,16.288,23.355,15.507z M12.869,17.779h-1.108    v5.599H10.69v-5.599H9.582v-0.951h3.286v0.951H12.869z M16,23.377h-0.948v-0.531c-0.177,0.197-0.358,0.346-0.549,0.447    c-0.19,0.104-0.374,0.153-0.552,0.153c-0.22,0-0.383-0.071-0.497-0.216c-0.11-0.144-0.166-0.358-0.166-0.647v-4.041h0.949v3.707    c0,0.115,0.021,0.198,0.059,0.249c0.042,0.052,0.106,0.077,0.194,0.077c0.07,0,0.159-0.034,0.266-0.102    c0.108-0.068,0.204-0.154,0.295-0.258v-3.672H16V23.377z M19.449,22.379c0,0.342-0.075,0.604-0.224,0.786    c-0.148,0.182-0.364,0.273-0.646,0.273c-0.187,0-0.352-0.034-0.496-0.104c-0.146-0.071-0.282-0.178-0.406-0.327v0.37h-0.96v-6.552    h0.96v2.11c0.129-0.147,0.264-0.261,0.407-0.336c0.146-0.077,0.291-0.115,0.439-0.115c0.302,0,0.531,0.103,0.689,0.307    c0.16,0.206,0.239,0.508,0.239,0.904v2.683H19.449z M22.744,21.079h-1.818v0.909c0,0.255,0.031,0.431,0.092,0.53    c0.064,0.099,0.17,0.147,0.323,0.147c0.157,0,0.267-0.041,0.33-0.125c0.062-0.084,0.096-0.266,0.096-0.552v-0.22h0.977v0.249    c0,0.496-0.118,0.869-0.357,1.121c-0.237,0.25-0.593,0.374-1.066,0.374c-0.426,0-0.761-0.131-1.006-0.399    c-0.244-0.265-0.368-0.63-0.368-1.097v-2.171c0-0.418,0.136-0.761,0.404-1.025c0.268-0.264,0.615-0.395,1.04-0.395    c0.435,0,0.769,0.123,1.003,0.367c0.233,0.244,0.35,0.595,0.35,1.053C22.744,19.844,22.744,21.079,22.744,21.079z" fill="#414753"/></g><path d="M21.347,12.69h-1.071v-0.589c-0.194,0.216-0.401,0.382-0.616,0.495c-0.214,0.113-0.42,0.169-0.621,0.169   c-0.25,0-0.434-0.079-0.559-0.238c-0.125-0.159-0.188-0.396-0.188-0.713V7.365h1.069v4.082c0,0.126,0.025,0.217,0.069,0.274   c0.043,0.056,0.117,0.085,0.217,0.085c0.078,0,0.178-0.038,0.299-0.112c0.119-0.075,0.23-0.169,0.329-0.287V7.365h1.071   L21.347,12.69L21.347,12.69z" fill="#414753"/><path d="M17.002,7.619c-0.283-0.258-0.647-0.387-1.089-0.387c-0.485,0-0.873,0.123-1.161,0.367   c-0.289,0.244-0.433,0.572-0.432,0.986v2.759c0,0.453,0.141,0.812,0.42,1.081c0.281,0.267,0.657,0.401,1.124,0.401   c0.487,0,0.868-0.129,1.147-0.389c0.276-0.26,0.415-0.617,0.415-1.072V8.613C17.426,8.208,17.284,7.876,17.002,7.619z    M16.336,11.443c0,0.141-0.042,0.254-0.128,0.337c-0.086,0.08-0.201,0.122-0.345,0.122c-0.142,0-0.251-0.039-0.327-0.119   c-0.076-0.081-0.115-0.193-0.115-0.339v-2.9c0-0.116,0.042-0.211,0.123-0.282c0.083-0.072,0.188-0.106,0.319-0.106   c0.14,0,0.255,0.036,0.342,0.106c0.088,0.072,0.131,0.166,0.131,0.282V11.443z" fill="#414753"/><polygon fill="#414753" points="11.405,5.473 10.192,5.473 11.626,9.831 11.626,12.69 12.831,12.69 12.831,9.695 14.232,5.473    13.007,5.473 12.263,8.358 12.188,8.358  "/></g></svg>